PathFileType	4	(X/Y/Z)	./resultDataOpenSim/trcMotMarkerGrf/sub09/qtm-05-02.trc
DataRate	CameraRate	NumFrames	NumMarkers	Units	OrigDataRate	OrigDataStartFrame	OrigNumFrames
250.000000	250.000000	11	24	m	250.000000	322	514
Frame#	Time	L.Toe.Tip			R.Toe.Tip			L.Ankle.Lat			R.Ankle.Lat			L.Ankle.Med			R.Ankle.Med			L.Heel			R.Heel			L.Knee.Lat			R.Knee.Lat			L.Knee.Med			R.Knee.Med			L.Thigh.Upper			R.Thigh.Upper			L.ASIS			R.ASIS			V.Sacral			L.Acromium			R.Acromium			C7			L.Elbow			R.Elbow			L.Wrist.Lat			R.Wrist.Lat
		X1	Y1	Z1	X2	Y2	Z2	X3	Y3	Z3	X4	Y4	Z4	X5	Y5	Z5	X6	Y6	Z6	X7	Y7	Z7	X8	Y8	Z8	X9	Y9	Z9	X10	Y10	Z10	X11	Y11	Z11	X12	Y12	Z12	X13	Y13	Z13	X14	Y14	Z14	X15	Y15	Z15	X16	Y16	Z16	X17	Y17	Z17	X18	Y18	Z18	X19	Y19	Z19	X20	Y20	Z20	X21	Y21	Z21	X22	Y22	Z22	X23	Y23	Z23	X24	Y24	Z24

322	1.284	0.2383459	-0.051017712	0.056410021	1.0945198	0.04149573	0.15778977	0.17694913	0.086800406	-0.018959733	0.94682559	0.053302456	0.18934224	0.20501156	0.087843049	0.074550391	0.9546021	0.091363994	0.098109066	0.10938602	0.11399607	0.02303001	0.87758895	0.032723805	0.14061298	0.46848756	0.39390264	-0.044355017	0.9408257	0.50413715	0.24614875	0.47136578	0.38088679	0.081509575	0.93160144	0.4919318	0.11942349	0.62315294	0.77308042	-0.062983355	0.67626603	0.8093324	0.30760939	0.73413349	0.8427384	-0.015242201	0.74455474	0.88027844	0.22192031	0.58037995	0.93067533	0.10621121	0.78948711	1.3054227	-0.047090426	0.74632517	1.3200445	0.27966611	0.70059075	1.369228	0.10647463	0.67277346	0.94220275	-0.11744386	0.55038538	1.0154203	0.34756589	0.92973917	0.8514181	-0.076093723	0.62672727	0.75607884	0.40181474
323	1.288	0.24002871	-0.04924371	0.055794604	1.0947079	0.041330584	0.15773806	0.18221935	0.091023055	-0.019173139	0.94677582	0.053070306	0.18926667	0.21089186	0.091100512	0.074130318	0.95492345	0.091305697	0.09799457	0.1158473	0.11987312	0.023277229	0.87766494	0.032744546	0.14056979	0.47882554	0.3932081	-0.045135838	0.94581309	0.50404752	0.24639606	0.4818454	0.37977973	0.080578175	0.93630487	0.49176029	0.11938966	0.63051689	0.77351179	-0.062408345	0.68253815	0.81028437	0.30831261	0.74085996	0.84342228	-0.01440147	0.75074244	0.88122278	0.22279444	0.58686138	0.93205054	0.10655444	0.79683743	1.3063514	-0.046620857	0.75303031	1.3209016	0.28010511	0.70758472	1.3701228	0.1069247	0.67900769	0.9437922	-0.11701449	0.55743701	1.0157294	0.34775378	0.93468998	0.84928459	-0.075791563	0.63518392	0.75676795	0.40242119
324	1.292	0.24180653	-0.047270577	0.055189261	1.0948374	0.041199166	0.157622	0.18774006	0.095462655	-0.019260721	0.94641341	0.052888906	0.1894658	0.21697701	0.094532004	0.073838773	0.95516232	0.091291865	0.097936223	0.12258994	0.12596354	0.023605192	0.87768931	0.03274431	0.14057266	0.48947258	0.39250601	-0.045771104	0.95056224	0.50397624	0.24661855	0.49260396	0.37872208	0.079560706	0.94069302	0.49164226	0.11942769	0.6378199	0.77403299	-0.06187742	0.68864581	0.81120895	0.3089968	0.74757067	0.84429509	-0.013436964	0.75684905	0.88218278	0.22372339	0.59308629	0.93349816	0.10708558	0.80412245	1.3073423	-0.04621442	0.75972844	1.3218449	0.28051621	0.71456989	1.3711217	0.10744294	0.6852126	0.94544969	-0.11659	0.56439972	1.0160875	0.3478686	0.93952899	0.84715925	-0.075507547	0.64366196	0.75752981	0.4029995
325	1.296	0.24360813	-0.045082316	0.054567271	1.0949125	0.041099638	0.15750681	0.19355283	0.10010594	-0.019231566	0.94598603	0.052794071	0.18980836	0.22327716	0.098139999	0.073668694	0.95530259	0.091317529	0.097934153	0.12961346	0.13228143	0.023996619	0.87767113	0.032729415	0.14060444	0.50036906	0.39180308	-0.046245955	0.9550108	0.50387993	0.24672054	0.50359378	0.3775893	0.078687405	0.94476274	0.49158413	0.11953576	0.64499033	0.77463762	-0.061354937	0.69460618	0.81214633	0.30965881	0.75417726	0.84531506	-0.012451732	0.76288494	0.88319459	0.22468129	0.59915847	0.93499324	0.10773428	0.81127288	1.3084172	-0.04581166	0.7664081	1.3228767	0.28090041	0.72148598	1.3722213	0.10796334	0.69139267	0.94716477	-0.1161589	0.57131929	1.0165038	0.34794786	0.94423866	0.84504978	-0.075240397	0.65215961	0.75837449	0.40354249
326	1.3	0.24535065	-0.042629172	0.053856081	1.0949312	0.041028971	0.15746736	0.1996886	0.10495628	-0.019131444	0.94573986	0.052800708	0.19011849	0.22978298	0.10192707	0.073622488	0.95537328	0.091378775	0.097979886	0.13693012	0.13886162	0.024445554	0.87762325	0.032708136	0.14064542	0.5114345	0.39109372	-0.046597233	0.95915697	0.50376459	0.24668865	0.51485595	0.37636654	0.078026247	0.94855763	0.49159383	0.11970994	0.65198461	0.77531565	-0.060823848	0.70044371	0.8131422	0.31030265	0.76063165	0.84643736	-0.011520161	0.76886135	0.88428705	0.22564545	0.60522968	0.93650894	0.10833388	0.81826349	1.3095831	-0.045383888	0.77304678	1.3239966	0.28125657	0.72826793	1.3734137	0.10840272	0.6975462	0.94892539	-0.11571528	0.57826357	1.0170004	0.34806332	0.94882791	0.84296042	-0.074999728	0.66067051	0.7593066	0.40403496
327	1.304	0.24695869	-0.039821593	0.05295714	1.0949023	0.040978366	0.15749987	0.20617024	0.1100316	-0.019029816	0.94570355	0.052874193	0.19032283	0.23647187	0.10589599	0.073696517	0.95541437	0.091466995	0.098058586	0.14456495	0.1457356	0.024959327	0.87755649	0.032688119	0.14069026	0.52262487	0.39036188	-0.04687546	0.9630896	0.50363697	0.24664769	0.52636584	0.37515174	0.077535935	0.95214422	0.49167014	0.119947	0.65880937	0.77605603	-0.060293508	0.70617424	0.81423414	0.31092915	0.76694739	0.84763918	-0.010651811	0.77478255	0.88547383	0.22658756	0.61137804	0.93803246	0.10879045	0.82511141	1.3108272	-0.04494636	0.77962716	1.3252015	0.28158287	0.73491027	1.374692	0.10874631	0.7036722	0.95072053	-0.11526429	0.58525105	1.0175959	0.34825213	0.95331025	0.84089762	-0.074794463	0.66917664	0.76031521	0.40445852
328	1.308	0.24839642	-0.036576693	0.05181108	1.0948445	0.040936882	0.15754874	0.21299134	0.11534801	-0.018960131	0.94576081	0.052951504	0.190448	0.24331947	0.11005468	0.073867574	0.95544821	0.091568894	0.098154431	0.15254075	0.15291015	0.025548981	0.87747804	0.032672777	0.140741	0.53396367	0.38959687	-0.047114569	0.9668981	0.50348913	0.24673046	0.53796	0.37402541	0.077230441	0.95559428	0.4917951	0.12023887	0.66548864	0.77684681	-0.059771967	0.71179641	0.81544872	0.311532	0.77315015	0.8489109	-0.0098313447	0.78064751	0.88675686	0.22747969	0.6175545	0.93957175	0.10912411	0.83183329	1.3121343	-0.044527909	0.7861445	1.3264872	0.28188177	0.74144664	1.376045	0.10903654	0.70977333	0.95254191	-0.11481211	0.59225547	1.0182967	0.34849892	0.95769213	0.83886903	-0.07462763	0.67766646	0.76139076	0.40480618
329	1.312	0.2497292	-0.032886852	0.050482664	1.0947723	0.040898478	0.15758341	0.22011366	0.12092456	-0.018917254	0.94581223	0.052990737	0.19053423	0.25031289	0.11441934	0.074102324	0.95548005	0.091670688	0.098253144	0.16085761	0.16036006	0.026209273	0.87739276	0.032659752	0.14079229	0.54550692	0.38881228	-0.047317648	0.97053053	0.50330483	0.24686789	0.54951619	0.37301112	0.077133643	0.95897323	0.49193527	0.12057026	0.67204324	0.77767847	-0.059243239	0.7172978	0.81680123	0.31210233	0.7792559	0.8502451	-0.0090481931	0.78646107	0.88813475	0.22830788	0.6236277	0.94115561	0.10938956	0.83843227	1.313499	-0.044148586	0.79260404	1.3278513	0.28216206	0.74789337	1.3774577	0.10931358	0.71584863	0.9543837	-0.11435661	0.59925962	1.0190988	0.34877355	0.96197216	0.83687766	-0.074501675	0.68617527	0.76255179	0.40509869
330	1.316	0.25112393	-0.028778656	0.049144198	1.0946941	0.040863583	0.15761301	0.22750281	0.12678731	-0.018905327	0.94580922	0.052990153	0.19059499	0.25745472	0.11901286	0.074369221	0.95551337	0.091763198	0.098343262	0.16948442	0.16803709	0.026908314	0.8773066	0.032645916	0.14083057	0.55726006	0.38804837	-0.047442651	0.97384135	0.50306488	0.24684845	0.56103172	0.3721579	0.077212397	0.96232548	0.49205364	0.12093096	0.67849109	0.7785564	-0.058660037	0.72266988	0.81829409	0.31263278	0.78527526	0.85163521	-0.0082999581	0.79223214	0.88960269	0.22906976	0.62945696	0.94282638	0.10963001	0.84490856	1.3149229	-0.043812378	0.79901197	1.3292947	0.28243144	0.75424859	1.378919	0.10958894	0.72189163	0.95624217	-0.11388962	0.60626626	1.0199951	0.34906068	0.96614236	0.83492721	-0.074420928	0.69480426	0.76385264	0.40539132
331	1.32	0.25275816	-0.024209181	0.047948572	1.0946191	0.040834088	0.15764685	0.23513818	0.1329345	-0.018939244	0.9457331	0.052969337	0.19063028	0.26475512	0.12385827	0.074639618	0.95555472	0.091843613	0.098417836	0.17837136	0.17588929	0.027596401	0.87722762	0.032632501	0.14084459	0.56915848	0.38735688	-0.047427892	0.97683246	0.50277935	0.24665232	0.57257108	0.37154374	0.077406897	0.96566672	0.49212293	0.12132273	0.68484741	0.77950724	-0.057964994	0.72792042	0.81991484	0.31311678	0.79121535	0.853079	-0.0075859524	0.79796272	0.89114892	0.2297648	0.63498747	0.94460583	0.10987511	0.85126818	1.3164087	-0.043511701	0.80536659	1.3308185	0.2826889	0.76051353	1.3804268	0.10985352	0.72789582	0.95811542	-0.11340444	0.61326366	1.0209848	0.34935993	0.97019467	0.83302821	-0.074388239	0.70364108	0.76534377	0.40573476
332	1.324	0.25474714	-0.019138134	0.046974314	1.0945567	0.040808787	0.15767765	0.24298158	0.13931569	-0.019011578	0.94558467	0.052947123	0.19064326	0.27222665	0.12897001	0.074884658	0.95560769	0.091913658	0.098476298	0.18747385	0.18387474	0.028214117	0.87716267	0.032623058	0.14083307	0.58114105	0.38678264	-0.047261633	0.97970799	0.50249538	0.24653349	0.58432404	0.37118178	0.077633115	0.96898969	0.4921316	0.12174781	0.69112258	0.78055494	-0.057153091	0.73307479	0.82163687	0.31354971	0.79707844	0.85457608	-0.006909372	0.80364837	0.89275812	0.23039208	0.64032843	0.94645892	0.11013719	0.8575214	1.3179529	-0.043243024	0.81165862	1.33242	0.28292813	0.76669424	1.3819816	0.11009717	0.7338538	0.96000057	-0.11290174	0.62021133	1.0220696	0.34966763	0.97412958	0.83119034	-0.07440249	0.71260381	0.76699721	0.40609402
